<svg version="1.1" width="1000.000000" height="1000.000000" xmlns="http://www.w3.org/2000/svg">
<rect x="250.000000" y="250.000000" width="100.000000" height="100.000000" stroke="black"  fill="none"  opacity="1.000000"  stroke-width="1.000000"  transform="rotate(0.000000,350.000000,350.000000)"/>
<rect x="100.000000" y="100.000000" width="50.000000" height="100.000000" stroke="black"  fill="none"  opacity="1.000000"  stroke-width="1.000000"  transform="rotate(0.000000,150.000000,200.000000)"/>
<polygon points="400.000000,100.000000 450.000000,100.000000 425.000000,20.000000" width="50.000000" height="80.000000" stroke="black"  fill="none"  opacity="1.000000"  stroke-width="1.000000"  transform="rotate(0.000000,425.000000,60.000000)"/>
<circle cx="400.000000" cy="400.000000" r="50.000000"  stroke="black"  fill="none"  opacity="1.000000"  stroke-width="1.000000"  transform="rotate(0.000000,400.000000,400.000000)"/>
<line x1="10.000000" y1="10.000000" x2="490.000000" y2="490.000000"  stroke="black"  fill="none"  opacity="1.000000"  stroke-width="1.000000"  transform="rotate(0.000000,250.000000,250.000000)"/>
<line x1="10.000000" y1="10.000000" x2="10.000000" y2="10.000000"  stroke="black"  fill="none"  opacity="1.000000"  stroke-width="1.000000"  transform="rotate(0.000000,10.000000,10.000000)"/>
<line x1="10.000000" y1="10.000000" x2="490.000000" y2="10.000000"  stroke="black"  fill="none"  opacity="1.000000"  stroke-width="1.000000"  transform="rotate(0.000000,10.000000,10.000000)"/>
<line x1="490.000000" y1="10.000000" x2="490.000000" y2="490.000000"  stroke="black"  fill="none"  opacity="1.000000"  stroke-width="1.000000"  transform="rotate(0.000000,10.000000,10.000000)"/>
<line x1="490.000000" y1="490.000000" x2="10.000000" y2="490.000000"  stroke="black"  fill="none"  opacity="1.000000"  stroke-width="1.000000"  transform="rotate(0.000000,10.000000,10.000000)"/>
<line x1="10.000000" y1="490.000000" x2="10.000000" y2="10.000000"  stroke="black"  fill="none"  opacity="1.000000"  stroke-width="1.000000"  transform="rotate(0.000000,10.000000,10.000000)"/>
<text x="100.000000" y="100.000000" font-family="Liberation Serif" stroke="black"  opacity="1.000000"  transform="rotate(0.000000,103.500000,100.000000)" >Bonjour</text> 
</svg>